<svg xmlns="http://www.w3.org/2000/svg" viewBox="0 0 56 56" width="56" height="56" role="img" aria-label="Rogii">
  <defs>
    <linearGradient id="rogiiGrad" x1="0%" y1="100%" x2="50%" y2="0%">
      <stop offset="0%" stop-color="#2d8a78"/>
      <stop offset="55%" stop-color="#68cbb3"/>
      <stop offset="100%" stop-color="#8fd9ca"/>
    </linearGradient>
  </defs>
  <circle cx="28" cy="28" r="26" fill="#0f1f1c" opacity="0.06"/>
  <path fill="url(#rogiiGrad)" d="M28 6c2 8 10 12 10 22a10 10 0 1 1-20 0c0-6 4-11 6-16 1-3 2-6 4-6zm-6 26c0 4 3 8 8 10-3-3-5-7-5-11 0-4 2-8 4-11-4 3-7 8-7 12z"/>
  <path fill="#1a3d38" opacity="0.25" d="M26 38c3 2 6 2 9 0-2 4-6 6-10 6s-8-2-10-6c2 2 6 2 11 0z"/>
</svg>
